<svg xmlns="http://www.w3.org/2000/svg" xmlns:xlink="http://www.w3.org/1999/xlink"><symbol viewBox="0 0 320 480" id="catfood-form_background"><path d="M4 469c3 7 0 4 7 7h298c4 0 7-3 7-7V11c-3-7 0-4-7-7H46L4 46v423" class="catfood-form_background"/></symbol><symbol viewBox="0 0 320 480" id="catfood-form_border"><path d="M11 480c-6 0-11-5-11-11V45L45 0h264c6 0 11 5 11 11v458c0 6-5 11-11 11H11m-7-11c3 7 0 4 7 7h298c4 0 7-3 7-7V11c-3-7 0-4-7-7H46L4 46v423" class="catfood-form_border"/></symbol></svg>